HIERARCHY
ROOT Hips
{
	OFFSET 0.00000 0.00000 0.00000
	CHANNELS 6 Xposition Yposition Zposition Zrotation Yrotation Xrotation 
	JOINT LHipJoint
	{
		OFFSET 0 0 0
		CHANNELS 3 Zrotation Yrotation Xrotation
		JOINT LeftUpLeg
		{
			OFFSET 1.17584 -1.63585 1.00361
			CHANNELS 3 Zrotation Yrotation Xrotation
			JOINT LeftLeg
			{
				OFFSET 2.23889 -6.15131 0.00000
				CHANNELS 3 Zrotation Yrotation Xrotation
				JOINT LeftFoot
				{
					OFFSET 2.65161 -7.28525 0.00000
					CHANNELS 3 Zrotation Yrotation Xrotation
					JOINT LeftToeBase
					{
						OFFSET 0.24898 -0.68407 1.57235
						CHANNELS 3 Zrotation Yrotation Xrotation
						End Site
						{
							OFFSET 0.00000 -0.00000 0.85838
						}
					}
				}
			}
		}
	}
	JOINT RHipJoint
	{
		OFFSET 0 0 0
		CHANNELS 3 Zrotation Yrotation Xrotation
		JOINT RightUpLeg
		{
			OFFSET -1.15592 -1.63585 1.00361
			CHANNELS 3 Zrotation Yrotation Xrotation
			JOINT RightLeg
			{
				OFFSET -2.34071 -6.43104 0.00000
				CHANNELS 3 Zrotation Yrotation Xrotation
				JOINT RightFoot
				{
					OFFSET -2.59113 -7.11908 0.00000
					CHANNELS 3 Zrotation Yrotation Xrotation
					JOINT RightToeBase
					{
						OFFSET -0.17867 -0.49089 1.70981
						CHANNELS 3 Zrotation Yrotation Xrotation
						End Site
						{
							OFFSET -0.00000 -0.00000 0.89861
						}
					}
				}
			}
		}
	}
	JOINT LowerBack
	{
		OFFSET 0 0 0
		CHANNELS 3 Zrotation Yrotation Xrotation
		JOINT Spine
		{
			OFFSET -0.02255 1.90764 -0.16605
			CHANNELS 3 Zrotation Yrotation Xrotation
			JOINT Spine1
			{
				OFFSET -0.00365 1.92150 -0.04898
				CHANNELS 3 Zrotation Yrotation Xrotation
				JOINT Neck
				{
					OFFSET 0 0 0
					CHANNELS 3 Zrotation Yrotation Xrotation
					JOINT Neck1
					{
						OFFSET 0.00372 1.59170 0.08694
						CHANNELS 3 Zrotation Yrotation Xrotation
						JOINT Head
						{
							OFFSET 0.12558 1.58643 -0.08078
							CHANNELS 3 Zrotation Yrotation Xrotation
							End Site
							{
								OFFSET 0.04211 1.60835 -0.03803
							}
						}
					}
				}
				JOINT LeftShoulder
				{
					OFFSET 0 0 0
					CHANNELS 3 Zrotation Yrotation Xrotation
					JOINT LeftArm
					{
						OFFSET 3.69324 0.96316 0.19077
						CHANNELS 3 Zrotation Yrotation Xrotation
						JOINT LeftForeArm
						{
							OFFSET 4.87796 -0.00000 -0.00000
							CHANNELS 3 Zrotation Yrotation Xrotation
							JOINT LeftHand
							{
								OFFSET 3.23169 -0.00000 0.00000
								CHANNELS 3 Zrotation Yrotation Xrotation
								JOINT LeftFingerBase
								{
									OFFSET 0 0 0
									CHANNELS 3 Zrotation Yrotation Xrotation
									JOINT LeftHandIndex1
									{
										OFFSET 0.73132 -0.00000 0.00000
										CHANNELS 3 Zrotation Yrotation Xrotation
										End Site
										{
											OFFSET 0.58961 -0.00000 0.00000
										}
									}
								}
								JOINT LThumb
								{
									OFFSET 0 0 0
									CHANNELS 3 Zrotation Yrotation Xrotation
									End Site
									{
										OFFSET 0.59861 -0.00000 0.59861
									}
								}
							}
						}
					}
				}
				JOINT RightShoulder
				{
					OFFSET 0 0 0
					CHANNELS 3 Zrotation Yrotation Xrotation
					JOINT RightArm
					{
						OFFSET -3.66103 0.75145 0.08281
						CHANNELS 3 Zrotation Yrotation Xrotation
						JOINT RightForeArm
						{
							OFFSET -4.91430 -0.00000 0.00000
							CHANNELS 3 Zrotation Yrotation Xrotation
							JOINT RightHand
							{
								OFFSET -3.29093 -0.00000 0.00000
								CHANNELS 3 Zrotation Yrotation Xrotation
								JOINT RightFingerBase
								{
									OFFSET 0 0 0
									CHANNELS 3 Zrotation Yrotation Xrotation
									JOINT RightHandIndex1
									{
										OFFSET -0.54512 -0.00000 0.00000
										CHANNELS 3 Zrotation Yrotation Xrotation
										End Site
										{
											OFFSET -0.43949 -0.00000 0.00000
										}
									}
								}
								JOINT RThumb
								{
									OFFSET 0 0 0
									CHANNELS 3 Zrotation Yrotation Xrotation
									End Site
									{
										OFFSET -0.44620 -0.00000 0.44620
									}
								}
							}
						}
					}
				}
			}
		}
	}
}
MOTION
Frames: 11
Frame Time: .0083333
-7.8616 19.1624 0.6667 344.4630 -83.7504 -162.6100 0.0000 0.0000 0.0000 -12.0308 -1.2792 -36.0255 6.4464 14.8474 46.7480 0.2054 -1.4153 -8.1815 1.0845 6.6187 18.5904 0.0000 0.0000 0.0000 3.6224 -13.2159 32.3719 -4.1044 -12.2981 36.7949 -4.9821 -11.3460 40.7840 -0.3829 -3.9739 11.0031 1.1323 -1.1081 -5.1784 -2.0119 -1.4554 -7.0974 -2.7407 -0.7753 -4.5302 -4.2955 -1.7640 -18.3231 0.1760 -2.3588 -24.7314 0.8019 -1.4694 -4.7110 -0.0000 -0.0000 0.0000 55.2849 -22.4672 -80.2570 22.1757 -33.1750 -6.6817 -0.0000 0.0000 -6.1346 54.6639 -23.8274 -29.6746 -7.1250 0.0000 -0.0000 14.7182 -6.3078 -16.7817 -0.0000 -0.0000 0.0000 -48.9389 24.6713 -78.4793 -25.7185 36.9294 -8.7180 0.0000 -0.0000 -8.9248 -54.9926 -26.8555 32.8210 7.1250 -0.0000 -0.0000 -38.6657 -67.6211 22.3220
-7.8671 19.0499 0.6760 347.0430 -83.6319 -164.8670 0.0000 0.0000 0.0000 -11.2280 -2.2319 -36.5441 5.7499 14.1816 43.9697 0.1606 -0.0426 -7.5534 0.8274 5.8034 16.2151 0.0000 0.0000 0.0000 2.9850 -13.3982 34.4930 -3.8894 -12.0118 35.7737 -5.1557 -12.2754 41.5062 -0.3988 -4.0546 11.2303 1.6271 -1.0171 -5.4518 -1.8436 -1.3469 -7.0894 -2.8471 -0.7404 -4.3715 -4.3569 -1.7223 -18.6212 0.1281 -2.2849 -24.6507 0.7939 -1.4297 -4.6477 -0.0000 -0.0000 0.0000 56.8227 -21.4336 -80.9359 20.5199 -31.2636 -5.7988 -0.0000 0.0000 -6.0657 54.0356 -23.1756 -28.4747 -7.1250 0.0000 -0.0000 14.5632 -5.0917 -16.3138 -0.0000 -0.0000 0.0000 -50.6810 23.8907 -81.8060 -24.0025 35.1669 -7.7080 0.0000 -0.0000 -7.7969 -53.3945 -26.5419 31.0296 7.1250 -0.0000 -0.0000 -34.9804 -66.7674 19.3151
-7.8747 18.9269 0.6811 349.1530 -83.4432 -166.6790 0.0000 0.0000 0.0000 -10.3870 -3.2153 -36.9589 5.0980 13.4933 41.2443 0.1099 1.5017 -7.0025 0.6012 4.9635 13.8045 0.0000 0.0000 0.0000 2.4716 -13.3720 36.5279 -3.6995 -11.7495 34.8514 -5.3397 -13.1190 42.2739 -0.4123 -4.1218 11.4196 2.0018 -0.9009 -5.7244 -1.7026 -1.2080 -7.0811 -2.9134 -0.6855 -4.2075 -4.4163 -1.6946 -18.9936 0.1351 -2.2169 -24.4824 0.8014 -1.3960 -4.5455 -0.0000 -0.0000 0.0000 58.3681 -20.6282 -81.3402 18.7554 -29.1136 -4.9113 -0.0000 0.0000 -5.5486 55.3812 -22.8773 -29.3857 -7.1250 0.0000 -0.0000 15.3804 -5.4739 -17.3894 -0.0000 -0.0000 0.0000 -52.5805 23.0587 -85.2826 -22.0367 33.0184 -6.6058 0.0000 -0.0000 -6.1883 -51.4369 -26.2027 28.9799 7.1250 -0.0000 -0.0000 -30.9000 -65.7517 16.1605
-7.8851 18.7929 0.6816 350.1680 -83.1890 -167.4410 0.0000 0.0000 0.0000 -9.5729 -4.2905 -37.2303 4.4926 12.7885 38.5820 0.0495 3.2414 -6.6075 0.4065 4.0929 11.3383 0.0000 0.0000 0.0000 1.9734 -13.1871 38.4575 -3.5461 -11.5305 34.0907 -5.5318 -13.8737 43.0724 -0.4249 -4.1838 11.5943 2.2051 -0.7671 -5.9898 -1.6085 -1.0459 -7.0622 -2.9304 -0.6125 -4.0310 -4.5158 -1.6857 -19.4218 0.1900 -2.1561 -24.2392 0.8295 -1.3639 -4.4112 -0.0000 -0.0000 0.0000 59.8747 -20.0750 -81.6715 16.9188 -26.7506 -4.0507 -0.0000 0.0000 -4.6518 58.8219 -22.9669 -32.8160 -7.1250 0.0000 -0.0000 17.2043 -7.7933 -20.2529 -0.0000 -0.0000 0.0000 -54.5918 22.1523 -88.7037 -19.8410 30.4503 -5.4505 0.0000 -0.0000 -3.9756 -49.7823 -25.8364 27.2656 7.1250 -0.0000 -0.0000 -27.6959 -64.7915 13.7533
-7.8987 18.6482 0.6780 349.9320 -82.8877 -167.0050 0.0000 0.0000 0.0000 -8.7992 -5.5412 -37.3360 3.9397 12.0797 36.0146 -0.0269 5.1898 -6.4630 0.2452 3.1864 8.7980 0.0000 0.0000 0.0000 1.4307 -12.8901 40.2611 -3.4375 -11.3717 33.5438 -5.7379 -14.4062 43.9208 -0.4213 -4.1662 11.5447 2.2522 -0.6204 -6.2627 -1.5800 -0.8658 -7.0337 -2.9262 -0.5250 -3.8364 -4.6545 -1.6919 -19.8555 0.2536 -2.1044 -23.9269 0.8659 -1.3310 -4.2542 0.0000 0.0000 0.0000 61.1935 -19.8859 -82.3168 15.2397 -24.4790 -3.3246 -0.0000 0.0000 -3.4971 64.0573 -23.5276 -39.3704 -7.1250 0.0000 -0.0000 19.8147 -12.6190 -25.0202 0.0000 0.0000 0.0000 -56.6069 21.2099 -91.8561 -17.5263 27.5464 -4.3279 0.0000 -0.0000 -1.2395 -49.1584 -25.7070 26.6470 7.1250 -0.0000 -0.0000 -26.5579 -64.4398 12.9337
-7.9146 18.4939 0.6713 348.8570 -82.5487 -165.7720 0.0000 0.0000 0.0000 -8.0071 -7.0321 -37.2919 3.4484 11.3878 33.5994 -0.1268 7.3146 -6.6320 0.1184 2.2187 6.1104 0.0000 0.0000 0.0000 0.8626 -12.5069 41.9100 -3.3797 -11.2858 33.2498 -5.9367 -14.8871 44.7293 -0.4289 -4.2027 11.6476 2.2360 -0.4648 -6.5769 -1.6226 -0.6742 -7.0110 -2.9589 -0.4307 -3.6244 -4.8096 -1.6952 -20.2245 0.2901 -2.0469 -23.5563 0.8962 -1.2882 -4.0879 0.0000 0.0000 0.0000 62.2274 -20.1577 -83.7994 13.9123 -22.6091 -2.7943 -0.0000 0.0000 -2.0125 70.4681 -24.6633 -49.6313 -7.1250 0.0000 -0.0000 22.9733 -20.5249 -31.5768 0.0000 0.0000 0.0000 -58.4871 20.3518 -94.5967 -15.2768 24.5303 -3.3400 0.0000 0.0000 1.7394 -49.6938 -26.0162 27.3432 7.1250 -0.0000 -0.0000 -27.6371 -64.9771 13.8401
-7.9315 18.3319 0.6623 347.6680 -82.1706 -164.4320 0.0000 0.0000 0.0000 -7.0774 -8.7953 -37.1631 3.0265 10.7378 31.4007 -0.2515 9.5074 -7.1989 0.0305 1.1279 3.1007 0.0000 0.0000 0.0000 0.3435 -12.0464 43.3577 -3.3787 -11.2842 33.2443 -6.1279 -15.2528 45.4968 -0.4381 -4.2470 11.7726 2.2865 -0.2943 -6.9863 -1.7414 -0.4680 -7.0197 -3.1067 -0.3336 -3.3941 -4.9417 -1.6775 -20.4449 0.2859 -1.9689 -23.1372 0.9108 -1.2286 -3.9266 -0.0000 -0.0000 0.0000 63.0336 -20.9338 -86.6350 13.0161 -21.3108 -2.4591 -0.0000 -0.0000 0.0992 77.1581 -26.1435 -62.6444 -7.1250 0.0000 -0.0000 26.7381 -30.6877 -39.2274 -0.0000 -0.0000 0.0000 -59.8714 19.7906 -96.4985 -13.4707 21.9730 -2.6268 0.0000 0.0000 4.2975 -51.4217 -26.9498 29.6038 7.1250 -0.0000 -0.0000 -31.3845 -66.6243 17.0556
-7.9485 18.1649 0.6508 346.7510 -81.7486 -163.3220 0.0000 0.0000 0.0000 -5.9231 -10.8352 -37.0334 2.6766 10.1521 29.4708 -0.3982 11.6784 -8.1859 0.0002 -0.0844 -0.2318 0.0000 0.0000 0.0000 -0.0921 -11.5203 44.5486 -3.4401 -11.3756 33.5573 -6.2975 -15.5077 46.1692 -0.4493 -4.3005 11.9236 2.4579 -0.1071 -7.5508 -1.9400 -0.2488 -7.0699 -3.4039 -0.2360 -3.1226 -5.0294 -1.6608 -20.9885 0.2544 -1.8797 -22.0008 0.9315 -1.1630 -3.9452 -0.0000 -0.0000 0.0000 63.5136 -22.0964 -90.1872 12.7215 -20.8778 -2.3531 -0.0000 -0.0000 2.4118 82.6230 -27.4217 -74.2979 -7.1250 0.0000 -0.0000 30.7046 -39.7073 -46.0642 -0.0000 -0.0000 0.0000 -60.4875 19.7829 -97.4665 -12.4496 20.4755 -2.2571 0.0000 0.0000 5.9203 -54.0130 -28.3735 33.2005 7.1250 -0.0000 -0.0000 -38.0566 -69.0498 23.1115
-7.9648 17.9966 0.6357 346.0110 -81.2729 -162.3180 0.0000 0.0000 0.0000 -4.5550 -13.0872 -36.9774 2.3947 9.6439 27.8312 -0.5517 13.6779 -9.5462 0.0314 -1.1437 -3.1442 0.0000 0.0000 0.0000 -0.4669 -10.9377 45.4320 -3.5710 -11.5666 34.2154 -6.4487 -15.5611 46.7611 -0.4382 -4.2477 11.7746 2.6527 0.0754 -8.2895 -2.1776 -0.0408 -7.1610 -3.7535 -0.1438 -2.7983 -4.9523 -1.5941 -21.0139 0.1780 -1.7820 -21.4678 0.8857 -1.1007 -3.7368 -0.0000 -0.0000 0.0000 63.3175 -23.3939 -92.4913 13.2569 -21.6624 -2.5473 -0.0000 -0.0000 3.4924 85.0655 -28.5602 -79.7633 -7.1250 0.0000 -0.0000 32.5785 -44.0969 -48.7644 -0.0000 -0.0000 0.0000 -60.2354 20.3853 -97.1849 -12.3886 20.3849 -2.2358 0.0000 0.0000 5.9167 -56.9708 -29.8772 37.4600 7.1250 -0.0000 -0.0000 -47.4761 -71.4600 32.0036
-7.9812 17.8313 0.6168 345.1310 -80.7415 -161.1140 0.0000 0.0000 0.0000 -3.0594 -15.4451 -37.0301 2.1725 9.2164 26.4747 -0.6890 15.3684 -11.1484 0.0840 -1.8690 -5.1439 0.0000 0.0000 0.0000 -0.8578 -10.3290 46.0313 -3.7744 -11.8540 35.2175 -6.5848 -15.3370 47.2871 -0.3885 -4.0025 11.0836 2.6849 0.2180 -9.1308 -2.3851 0.1231 -7.2795 -3.9798 -0.0645 -2.4482 -4.7894 -1.5014 -21.1697 0.0709 -1.6607 -20.8021 0.8137 -1.0333 -3.4622 0.0000 0.0000 0.0000 62.2428 -24.6386 -92.5219 14.5769 -23.5535 -3.0549 -0.0000 -0.0000 3.0108 85.3807 -29.4947 -80.6805 -7.1250 0.0000 -0.0000 32.4046 -45.1313 -48.3235 0.0000 0.0000 0.0000 -59.2224 21.4597 -95.6788 -13.2709 21.6828 -2.5525 0.0000 0.0000 4.1990 -59.7430 -31.0148 41.4536 7.1250 -0.0000 -0.0000 -57.9957 -73.0754 42.0859
-7.9993 17.6730 0.5957 343.9440 -80.1937 -159.5960 0.0000 0.0000 0.0000 -1.5493 -17.7675 -37.1949 2.0004 8.8669 25.3798 -0.7804 16.5939 -12.7937 0.1251 -2.2797 -6.2792 0.0000 0.0000 0.0000 -1.3155 -9.7473 46.4185 -4.0483 -12.2244 36.5306 -6.7174 -14.8843 47.7976 -0.3089 -3.5730 9.8783 2.4772 0.2950 -9.9492 -2.5320 0.2217 -7.4033 -4.0093 -0.0063 -2.1219 -4.5531 -1.4033 -21.4907 -0.0671 -1.5482 -20.0814 0.7186 -0.9803 -3.1478 0.0000 0.0000 0.0000 60.5648 -25.5956 -90.6936 16.2449 -25.8516 -3.7521 -0.0000 -0.0000 1.5659 85.0592 -30.0996 -80.2198 -7.1250 0.0000 -0.0000 31.7421 -45.0532 -47.2452 0.0000 0.0000 0.0000 -57.6216 22.7201 -93.2308 -14.9371 24.0584 -3.2002 0.0000 0.0000 1.1859 -61.9318 -31.6460 44.5360 7.1250 -0.0000 -0.0000 -67.0182 -73.7740 50.7306
